HIERARCHY
ROOT root
{
	OFFSET 0.000000 0.000000 0.000000
	CHANNELS 6 Xposition Yposition Zposition Zrotation Yrotation Xrotation
	JOINT lhip
	{
		OFFSET 0.058581 -0.082280 -0.017664
		CHANNELS 3 Zrotation Yrotation Xrotation
		JOINT lknee
		{
			OFFSET 0.043451 -0.386469 0.008037
			CHANNELS 3 Zrotation Yrotation Xrotation
			JOINT lankle
			{
				OFFSET -0.014790 -0.426874 -0.037428
				CHANNELS 3 Zrotation Yrotation Xrotation
				JOINT ltoe
				{
					OFFSET 0.041054 -0.060286 0.122042
					CHANNELS 3 Zrotation Yrotation Xrotation
					End Site
					{
						OFFSET 0.000000 0.000000 0.000000
					}
				}
			}
		}
	}
	JOINT rhip
	{
		OFFSET -0.060310 -0.090513 -0.013543
		CHANNELS 3 Zrotation Yrotation Xrotation
		JOINT rknee
		{
			OFFSET -0.043257 -0.383688 -0.004843
			CHANNELS 3 Zrotation Yrotation Xrotation
			JOINT rankle
			{
				OFFSET 0.019056 -0.420046 -0.034562
				CHANNELS 3 Zrotation Yrotation Xrotation
				JOINT rtoe
				{
					OFFSET -0.034840 -0.062106 0.130323
					CHANNELS 3 Zrotation Yrotation Xrotation
					End Site
					{
						OFFSET 0.000000 0.000000 0.000000
					}
				}
			}
		}
	}
	JOINT lowerback
	{
		OFFSET 0.004439 0.124404 -0.038385
		CHANNELS 3 Zrotation Yrotation Xrotation
		JOINT upperback
		{
			OFFSET 0.004488 0.137956 0.026820
			CHANNELS 3 Zrotation Yrotation Xrotation
			JOINT chest
			{
				OFFSET -0.002265 0.056032 0.002855
				CHANNELS 3 Zrotation Yrotation Xrotation
				JOINT lowerneck
				{
					OFFSET -0.013390 0.211636 -0.033468
					CHANNELS 3 Zrotation Yrotation Xrotation
					JOINT upperneck
					{
						OFFSET 0.010113 0.088937 0.050410
						CHANNELS 3 Zrotation Yrotation Xrotation
						End Site
						{
							OFFSET 0.000000 0.000000 0.000000
						}
					}
				}
				JOINT lclavicle
				{
					OFFSET 0.071702 0.114000 -0.018898
					CHANNELS 3 Zrotation Yrotation Xrotation
					JOINT lshoulder
					{
						OFFSET 0.122921 0.045205 -0.019046
						CHANNELS 3 Zrotation Yrotation Xrotation
						JOINT lelbow
						{
							OFFSET 0.255332 -0.015649 -0.022946
							CHANNELS 3 Zrotation Yrotation Xrotation
							JOINT lwrist
							{
								OFFSET 0.265709 0.012698 -0.007375
								CHANNELS 3 Zrotation Yrotation Xrotation
								End Site
								{
									OFFSET 0.000000 0.000000 0.000000
								}
							}
						}
					}
				}
				JOINT rclavicle
				{
					OFFSET -0.082954 0.112472 -0.023707
					CHANNELS 3 Zrotation Yrotation Xrotation
					JOINT rshoulder
					{
						OFFSET -0.113228 0.046853 -0.008472
						CHANNELS 3 Zrotation Yrotation Xrotation
						JOINT relbow
						{
							OFFSET -0.260127 -0.014369 -0.031269
							CHANNELS 3 Zrotation Yrotation Xrotation
							JOINT rwrist
							{
								OFFSET -0.269108 0.006794 -0.006027
								CHANNELS 3 Zrotation Yrotation Xrotation
								End Site
								{
									OFFSET 0.000000 0.000000 0.000000
								}
							}
						}
					}
				}
			}
		}
	}
}
MOTION
Frames: 13
Frame Time: 0.033333
0.039942 0.218252 0.993708 88.879735 0.526635 93.890275 6.606421 0.508360 -10.890143 -2.660844 -3.587217 16.033957 -0.119822 8.159647 -12.079505 0.000000 -0.000000 0.000000 -4.166322 -1.860097 -9.337860 1.433385 3.395170 11.797973 2.296756 -3.799694 -7.869714 0.000000 -0.000000 0.000000 -1.105271 1.352974 1.978972 -2.524021 -4.843546 7.567616 -2.487954 1.641399 -9.391937 -5.190750 -19.937619 -2.137638 6.945500 -4.699046 4.056196 -32.500779 -14.707167 1.608698 -37.610608 -12.092285 20.991023 171.747231 -79.298121 -157.566656 10.037860 -18.268499 5.252672 17.604479 18.897341 0.834581 13.704516 24.727456 0.095630 104.954337 84.966082 109.490570 -5.779756 17.574957 0.034787 
0.040992 0.218168 0.993337 88.816950 0.448699 93.891520 6.501541 0.634281 -10.782884 -2.762858 -3.846508 15.984491 0.125694 8.465064 -11.922187 0.000000 -0.000000 0.000000 -4.356108 -1.781066 -9.229266 1.609623 3.590516 11.744989 2.780889 -4.161603 -7.830923 0.000000 -0.000000 0.000000 -1.382174 1.277723 1.577853 -2.080620 -4.677114 7.577984 -2.668710 1.600354 -9.255770 -5.335041 -19.791377 -1.349394 6.319425 -5.468130 4.945800 -31.822000 -11.990381 2.123782 -37.750250 -10.189315 20.634344 -179.835912 -83.266844 -165.631680 7.816137 -18.058718 5.596056 19.585327 16.968860 1.822749 18.549167 23.556191 2.932404 58.060246 82.305731 64.419248 -3.595144 17.007056 2.544037 
0.042206 0.218421 0.993064 88.884761 0.429658 93.742269 6.385133 0.700510 -10.572569 -2.799860 -4.279032 16.014944 0.351480 8.753869 -11.906992 0.000000 -0.000000 0.000000 -4.398944 -1.918431 -8.989176 1.646976 3.749866 11.784850 2.884954 -4.334668 -7.915804 0.000000 -0.000000 0.000000 -1.519984 1.315621 1.299094 -1.709105 -4.617840 7.736440 -2.720389 1.472753 -9.319152 -5.486296 -19.379230 -0.251412 5.625588 -6.083249 6.185543 -31.828344 -9.953268 3.089476 -37.377570 -8.103351 20.065073 -157.772747 -86.796908 171.960319 6.657529 -18.185319 6.383921 21.282264 15.603048 3.191590 22.632071 21.699814 5.092437 38.642170 77.778961 46.133170 -3.376579 16.500437 4.427543 
0.043544 0.218824 0.992867 89.065187 0.442295 93.451119 6.271840 0.744992 -10.387228 -2.908330 -4.938387 16.398063 0.534759 9.243282 -12.034948 0.000000 -0.000000 0.000000 -4.404244 -2.051140 -8.673109 1.720708 4.038821 12.058886 2.867847 -4.811944 -8.141126 0.000000 -0.000000 0.000000 -1.461583 1.362994 0.966787 -1.428995 -4.734323 8.360723 -2.892936 1.353013 -9.500729 -5.952999 -18.807298 1.702506 5.374263 -6.503871 7.317887 -31.882110 -7.853403 3.765594 -36.595805 -5.742438 19.482267 -71.278150 -87.332987 86.124979 4.297690 -17.889976 7.698090 23.033770 14.086475 4.258225 26.675541 19.542998 7.450218 29.147777 71.203364 37.702912 -1.883222 15.944051 5.798369 
0.043048 0.218704 0.993286 89.056366 0.373640 93.068162 6.205344 0.717455 -10.174825 -3.051910 -5.129619 16.789152 0.790783 9.582727 -12.147751 0.000000 -0.000000 0.000000 -4.412610 -1.951386 -8.417184 1.671246 4.210673 12.366074 2.780436 -5.089705 -8.302004 0.000000 -0.000000 0.000000 -1.598606 1.397350 1.449420 -1.312158 -4.668689 8.444227 -2.968140 1.295165 -9.696017 -5.618718 -18.365917 2.501444 5.058281 -6.591319 8.207819 -31.647250 -6.526483 3.993879 -36.502797 -4.508098 19.513253 -44.134545 -85.849229 59.057489 3.047780 -17.859055 7.679620 23.774284 13.130766 4.669985 29.040515 18.516932 9.013659 25.397709 67.557974 35.313229 -0.925781 14.914878 7.052440 
0.044005 0.218696 0.992876 88.889483 0.367465 93.161293 6.221333 0.843255 -10.217971 -3.214038 -5.382161 16.857126 0.885842 9.872123 -12.094807 0.000000 -0.000000 0.000000 -4.442446 -1.848523 -8.586199 1.707592 4.346005 12.610082 2.835901 -5.279607 -8.419039 0.000000 -0.000000 0.000000 -1.705943 1.446966 0.809892 -1.161305 -4.501146 8.784962 -3.080282 1.316888 -9.459055 -5.241906 -17.863806 3.507288 4.959050 -6.611163 8.986683 -31.618286 -4.939966 4.244467 -36.193056 -3.088506 19.099295 -34.516049 -83.653614 49.199724 1.984157 -17.870676 8.188755 24.554265 11.899863 5.448617 31.471945 17.047773 10.287158 23.429075 62.995955 34.652327 -0.106281 14.480922 8.735014 
0.044393 0.218992 0.993105 88.764196 0.333643 92.931113 6.093597 0.938153 -10.043193 -3.239582 -5.639506 17.132439 1.029364 10.209020 -12.287776 0.000000 -0.000000 0.000000 -4.528144 -1.811740 -8.362665 1.761754 4.556428 12.720343 2.832865 -5.400782 -8.525388 0.000000 -0.000000 0.000000 -1.664382 1.424576 0.934700 -1.140547 -4.291126 9.260963 -3.182577 1.325699 -9.415880 -4.559199 -17.354710 3.625095 4.983921 -6.928096 8.558202 -31.791435 -3.152246 3.972341 -35.736789 -1.877311 18.929494 -31.937092 -82.103951 46.089415 0.851559 -17.840695 9.377419 25.055792 10.780582 5.818175 33.701510 15.585955 11.646667 22.029158 59.261688 33.060827 0.617612 14.132815 8.619903 
0.043655 0.219254 0.993020 88.542459 0.477487 92.791813 6.186829 1.026203 -10.040718 -3.312577 -5.807372 17.384903 1.067736 10.450796 -12.283160 0.000000 -0.000000 0.000000 -4.329941 -1.617652 -8.365228 1.733127 4.770572 12.825994 2.736939 -5.598568 -8.532445 0.000000 -0.000000 0.000000 -1.394929 1.372872 1.712084 -1.069730 -3.907202 8.917863 -3.209116 1.429456 -8.940897 -3.753342 -17.006245 2.569784 5.033479 -7.385315 7.262865 -31.678549 -1.777299 3.570621 -36.123367 -0.590536 18.828528 -28.745419 -80.997588 42.473747 0.459304 -17.795333 9.351292 25.284243 9.908576 5.771377 35.368692 13.763328 12.843595 21.740129 56.269049 33.378784 0.845367 13.434896 9.202178 
0.043538 0.219140 0.993577 88.182404 0.586913 92.711685 6.281060 1.474112 -9.787322 -3.362450 -5.957923 17.191400 0.960768 10.489201 -12.240369 0.000000 -0.000000 0.000000 -4.120522 -1.456825 -8.276136 1.621570 5.083568 12.690577 2.709980 -5.675936 -8.446219 0.000000 -0.000000 0.000000 -1.296361 1.353636 2.255806 -0.939658 -3.421317 8.969096 -3.117294 1.516635 -8.761120 -2.933701 -16.623961 1.028891 4.768293 -7.946827 5.696432 -31.479521 -0.613255 3.264673 -36.557469 0.891761 18.823655 -27.242885 -80.305723 40.531348 -0.143463 -17.457400 9.763784 25.544022 9.217249 6.060963 36.445332 12.091694 13.855003 21.856509 53.689826 34.757761 1.306386 13.040322 10.703426 
0.043051 0.219707 0.993677 88.212468 0.578912 93.283720 6.217203 1.554381 -10.263283 -3.359670 -6.024531 16.759005 0.965051 10.527653 -11.887762 0.000000 -0.000000 0.000000 -4.168999 -1.518897 -8.742093 1.648475 5.087583 12.269527 2.575820 -5.790080 -8.174664 0.000000 -0.000000 0.000000 -1.030887 1.343636 2.348592 -0.961470 -3.224345 8.524653 -3.088706 1.455543 -8.480500 -2.381626 -16.315765 -0.527688 4.609189 -8.189124 4.298827 -31.182312 0.259736 3.345669 -37.137152 2.952273 18.727259 -25.540009 -79.907470 38.289211 -1.168093 -17.056622 9.880966 25.528231 8.695178 6.275664 38.059647 9.978929 15.044189 21.819353 50.500345 35.637806 2.445839 11.864455 11.602823 
0.043020 0.220308 0.993678 88.322718 0.517933 93.747690 6.149697 1.517267 -10.452056 -3.365660 -5.998521 16.018405 0.903820 10.513055 -11.478380 0.000000 -0.000000 0.000000 -4.350292 -1.616839 -8.941227 1.743890 4.929692 11.644264 2.502660 -5.775899 -7.824320 0.000000 -0.000000 0.000000 -0.898467 1.350622 2.223479 -0.982313 -3.144611 8.484614 -3.109464 1.392968 -8.669115 -2.068680 -16.138960 -1.167127 4.427785 -8.386803 3.476527 -30.930671 1.011540 3.309560 -37.593378 4.091283 18.928231 -24.529852 -79.304122 36.611694 -2.188323 -17.040848 9.459326 25.391422 8.228328 6.455921 39.555724 8.699539 16.086181 20.825641 47.428674 35.482244 3.493530 11.481940 12.377084 
0.043409 0.220365 0.994056 88.418418 0.533674 93.893522 6.201282 1.687573 -10.003630 -3.378893 -6.232201 14.831664 0.877148 10.354301 -11.109656 0.000000 -0.000000 0.000000 -4.398271 -1.729142 -8.629004 1.791996 4.866785 10.777917 2.484742 -5.790233 -7.505494 0.000000 -0.000000 0.000000 -0.763694 1.431359 2.127716 -0.969347 -3.139832 8.693077 -3.181818 1.271968 -9.064600 -1.889370 -15.829100 -1.102461 4.318294 -8.599663 3.098830 -30.863393 1.489714 3.671819 -37.803486 4.793450 18.874142 -22.846198 -78.901208 34.749285 -4.248392 -16.773106 10.004202 25.467970 7.918856 6.825774 41.139025 7.654787 16.957571 18.870564 44.306523 34.919001 4.784549 10.648648 13.569153 
0.044009 0.220449 0.994125 88.555917 0.468781 94.178910 6.136939 1.794961 -9.664431 -3.331912 -6.526202 13.526290 0.876409 10.186804 -10.552918 0.000000 -0.000000 0.000000 -4.558784 -1.915566 -8.547279 1.895170 4.798380 10.099859 2.459289 -5.754999 -7.156133 0.000000 -0.000000 0.000000 -0.779948 1.422456 1.645674 -0.922409 -3.148769 9.098561 -3.269822 1.208052 -9.664630 -1.800895 -15.595174 -0.509684 4.079243 -8.776292 3.242851 -30.813530 2.107515 3.873018 -37.923955 4.982975 18.972587 -22.183400 -78.507457 34.659622 -6.480809 -15.803310 11.494884 25.523977 7.415072 7.206589 42.850288 6.935572 17.901224 16.477134 41.037404 33.850020 5.754456 9.777891 14.484470 
